<svg style="display: none;">
	<symbol id="cart-i" width="37px" height="30px">
		<path fill-rule="evenodd"  fill="rgb(51, 51, 51)"
			d="M14.934,4.999 L15.267,6.999 L34.709,6.999 L31.000,16.999 C30.417,18.656 29.657,19.999 28.000,19.999 L13.000,19.999 C11.343,19.999 10.647,18.624 10.000,16.999 L6.079,-0.001 L-0.000,-0.001 L-0.000,1.999 L4.471,1.999 L8.000,16.999 C8.749,19.599 10.239,21.999 13.000,21.999 L28.000,21.999 C30.761,21.999 32.082,19.868 33.000,16.999 L37.000,4.999 L14.934,4.999 ZM28.000,23.999 C26.343,23.999 25.000,25.342 25.000,26.999 C25.000,28.656 26.343,29.999 28.000,29.999 C29.657,29.999 31.000,28.656 31.000,26.999 C31.000,25.342 29.657,23.999 28.000,23.999 ZM29.000,27.999 L27.000,27.999 L27.000,25.999 L29.000,25.999 L29.000,27.999 ZM12.000,23.999 C10.343,23.999 9.000,25.342 9.000,26.999 C9.000,28.656 10.343,29.999 12.000,29.999 C13.657,29.999 15.000,28.656 15.000,26.999 C15.000,25.342 13.657,23.999 12.000,23.999 ZM13.000,27.999 L11.000,27.999 L11.000,25.999 L13.000,25.999 L13.000,27.999 Z"/>
	</symbol>

	<symbol id="truck-i" width="48px" height="33px">
		<path fill-rule="evenodd"  fill="rgb(255, 255, 255)"
			d="M47.936,26.321 C47.936,26.863 47.496,27.297 46.959,27.297 L44.975,27.297 C44.437,27.297 43.997,26.854 43.997,26.311 C43.997,25.769 44.437,25.325 44.975,25.325 L45.991,25.325 L46.059,11.826 L39.687,6.501 L31.809,6.501 L31.809,25.345 L33.773,25.345 C34.311,25.345 34.751,25.789 34.751,26.331 C34.751,26.873 34.311,27.317 33.773,27.317 L21.840,27.317 C21.302,27.317 20.862,26.873 20.862,26.331 C20.862,25.789 21.302,25.345 21.840,25.345 L29.854,25.345 L29.854,1.965 L6.905,1.965 L6.905,8.197 C6.905,8.739 6.465,9.183 5.927,9.183 C5.390,9.183 4.950,8.739 4.950,8.197 L4.950,0.979 C4.950,0.436 5.390,-0.008 5.927,-0.008 L30.822,-0.008 C31.359,-0.008 31.799,0.436 31.799,0.979 L31.799,4.528 L40.029,4.528 C40.263,4.528 40.478,4.607 40.654,4.755 L47.653,10.603 C47.877,10.790 48.004,11.076 48.014,11.372 L47.936,26.321 ZM16.825,9.962 C17.363,9.962 17.803,10.406 17.803,10.948 C17.803,11.490 17.363,11.934 16.825,11.934 L4.970,11.934 C4.432,11.934 3.992,11.490 3.992,10.948 C3.992,10.406 4.432,9.962 4.970,9.962 L16.825,9.962 ZM15.819,15.504 C15.809,16.046 15.369,16.480 14.832,16.480 L2.976,16.411 C2.438,16.411 1.998,15.967 2.008,15.415 C2.008,14.872 2.448,14.439 2.985,14.439 C2.985,14.439 2.985,14.439 2.995,14.439 L14.851,14.508 C15.389,14.508 15.829,14.951 15.819,15.504 ZM13.825,19.971 C13.825,20.523 13.385,20.957 12.847,20.957 L0.992,20.957 C0.454,20.957 0.014,20.513 0.014,19.971 C0.014,19.428 0.454,18.985 0.992,18.985 L12.847,18.985 C13.385,18.985 13.825,19.428 13.825,19.971 ZM5.927,21.736 C6.465,21.736 6.905,22.180 6.905,22.722 L6.905,25.345 L8.869,25.345 C9.407,25.345 9.847,25.789 9.847,26.331 C9.847,26.873 9.407,27.317 8.869,27.317 L5.927,27.317 C5.390,27.317 4.950,26.873 4.950,26.331 L4.950,22.722 C4.950,22.180 5.390,21.736 5.927,21.736 ZM15.389,24.132 C17.793,24.132 19.748,26.124 19.748,28.569 C19.748,31.015 17.793,33.007 15.389,33.007 C14.216,33.007 13.111,32.543 12.261,31.705 C11.411,30.857 10.951,29.753 10.951,28.569 C10.951,27.386 11.420,26.282 12.261,25.434 C13.102,24.595 14.216,24.132 15.389,24.132 ZM15.389,31.035 C16.718,31.035 17.793,29.930 17.793,28.569 C17.793,27.209 16.718,26.104 15.389,26.104 C14.040,26.104 12.906,27.228 12.906,28.569 C12.906,29.910 14.040,31.035 15.389,31.035 ZM42.678,19.152 L34.722,19.152 C34.184,19.152 33.744,18.708 33.744,18.166 L33.744,10.080 C33.744,9.538 34.184,9.094 34.722,9.094 L39.736,9.094 C39.980,9.094 40.215,9.183 40.391,9.351 L43.332,12.023 C43.538,12.210 43.655,12.477 43.655,12.753 L43.655,18.166 C43.655,18.708 43.215,19.152 42.678,19.152 ZM41.700,13.186 L39.354,11.056 L35.699,11.056 L35.699,17.180 L41.700,17.180 L41.700,13.186 ZM39.257,24.132 C41.661,24.132 43.616,26.124 43.616,28.569 C43.616,31.015 41.661,33.007 39.257,33.007 C38.084,33.007 36.979,32.543 36.129,31.705 C35.279,30.857 34.819,29.753 34.819,28.569 C34.819,27.386 35.289,26.282 36.129,25.434 C36.970,24.595 38.084,24.132 39.257,24.132 ZM39.257,31.035 C40.586,31.035 41.661,29.930 41.661,28.569 C41.661,27.209 40.586,26.104 39.257,26.104 C37.908,26.104 36.774,27.228 36.774,28.569 C36.774,29.910 37.908,31.035 39.257,31.035 Z"/>
	</symbol>

	<symbol id="brakes-i" width="38px" height="38px">
			<path fill-rule="evenodd"  fill="rgb(255, 255, 255)"
 				d="M34.458,30.175 C31.327,35.236 25.993,38.005 20.548,38.006 C17.531,38.006 14.481,37.156 11.751,35.374 C7.360,32.507 4.567,27.695 4.172,22.390 C3.909,22.366 3.645,22.308 3.386,22.213 C2.232,21.793 1.436,20.755 1.308,19.505 L0.996,16.442 C0.824,14.757 1.394,13.103 2.560,11.905 L11.615,2.602 C12.782,1.404 14.391,0.819 16.031,0.995 L19.013,1.316 C20.230,1.447 21.240,2.265 21.649,3.450 C21.741,3.716 21.796,3.987 21.819,4.257 C24.503,4.465 27.109,5.352 29.399,6.847 C33.107,9.268 35.676,13.028 36.631,17.434 C37.587,21.841 36.815,26.366 34.458,30.175 ZM20.236,3.965 C20.019,3.335 19.503,2.917 18.856,2.848 L15.875,2.527 C14.686,2.399 13.520,2.823 12.676,3.691 L3.621,12.994 C2.776,13.862 2.362,15.060 2.487,16.281 L2.800,19.344 C2.867,20.008 3.274,20.538 3.887,20.761 C4.499,20.984 5.140,20.836 5.600,20.363 L19.848,5.725 C20.308,5.252 20.453,4.594 20.236,3.965 ZM19.468,8.294 L16.209,11.642 C16.233,11.673 16.256,11.706 16.275,11.741 C16.479,12.112 16.352,12.582 15.991,12.791 C15.875,12.859 15.748,12.890 15.624,12.890 C15.455,12.890 15.290,12.832 15.157,12.723 L12.788,15.157 C12.908,15.394 12.905,15.688 12.754,15.930 C12.754,15.930 12.754,15.930 12.755,15.930 C12.612,16.158 12.370,16.283 12.124,16.283 C12.006,16.283 11.888,16.253 11.778,16.194 L8.101,19.972 C7.907,22.240 8.299,24.522 9.243,26.589 C10.251,28.794 11.847,30.654 13.858,31.967 C16.681,33.810 20.033,34.414 23.298,33.667 C26.563,32.920 29.349,30.911 31.144,28.011 C34.847,22.024 33.119,14.057 27.292,10.252 C24.934,8.712 22.233,8.038 19.468,8.294 ZM35.168,17.769 C34.300,13.765 31.965,10.347 28.595,8.147 C26.479,6.765 24.067,5.954 21.585,5.783 C21.447,6.118 21.252,6.432 21.002,6.712 C23.503,6.792 25.967,7.561 28.096,8.952 C34.621,13.213 36.556,22.133 32.409,28.837 C30.400,32.085 27.280,34.334 23.624,35.170 C22.602,35.404 21.571,35.520 20.548,35.520 C17.914,35.520 15.330,34.754 13.054,33.267 C10.802,31.797 9.015,29.714 7.886,27.243 C7.067,25.451 6.618,23.513 6.559,21.552 C6.288,21.807 5.983,22.007 5.658,22.149 C5.983,27.020 8.531,31.446 12.555,34.073 C15.036,35.693 17.809,36.466 20.550,36.466 C25.499,36.466 30.347,33.949 33.193,29.349 C35.335,25.887 36.037,21.774 35.168,17.769 ZM26.927,25.257 C25.848,27.000 24.174,28.208 22.212,28.657 C21.663,28.782 21.109,28.845 20.560,28.845 C19.146,28.845 17.760,28.433 16.538,27.635 C13.035,25.348 11.997,20.560 14.223,16.962 C16.449,13.364 21.109,12.297 24.612,14.584 C26.309,15.692 27.484,17.412 27.921,19.428 C28.358,21.444 28.005,23.514 26.927,25.257 ZM26.458,19.763 C26.108,18.149 25.167,16.771 23.808,15.884 C22.808,15.231 21.690,14.919 20.584,14.919 C18.589,14.919 16.635,15.934 15.488,17.788 C13.706,20.670 14.537,24.504 17.342,26.335 C18.701,27.223 20.314,27.513 21.886,27.153 C23.457,26.794 24.798,25.827 25.661,24.431 C26.525,23.035 26.808,21.377 26.458,19.763 ZM21.696,26.278 C21.320,26.364 20.941,26.406 20.565,26.406 C19.597,26.406 18.647,26.125 17.810,25.578 C15.412,24.012 14.701,20.733 16.225,18.270 C17.750,15.805 20.941,15.075 23.339,16.641 C24.501,17.400 25.306,18.578 25.605,19.958 C25.905,21.338 25.663,22.756 24.924,23.950 C24.186,25.143 23.039,25.970 21.696,26.278 ZM24.142,20.293 C23.930,19.314 23.359,18.479 22.535,17.941 C21.929,17.545 21.251,17.356 20.581,17.356 C19.371,17.356 18.186,17.971 17.491,19.096 C16.410,20.843 16.914,23.168 18.615,24.278 C19.438,24.816 20.417,24.992 21.370,24.774 C22.322,24.556 23.135,23.970 23.659,23.123 C24.183,22.277 24.354,21.272 24.142,20.293 ZM24.971,12.592 C24.861,12.592 24.749,12.567 24.644,12.514 C24.644,12.514 24.644,12.514 24.643,12.514 C24.640,12.512 24.636,12.510 24.632,12.508 C24.261,12.321 24.107,11.862 24.287,11.480 C24.468,11.098 24.916,10.938 25.289,11.123 C25.290,11.124 25.290,11.124 25.292,11.125 C25.295,11.126 25.297,11.128 25.300,11.129 C25.672,11.315 25.827,11.775 25.646,12.158 C25.516,12.433 25.249,12.592 24.971,12.592 ZM20.280,11.554 C20.271,11.555 20.263,11.555 20.255,11.555 C19.852,11.555 19.519,11.226 19.507,10.809 C19.493,10.384 19.817,10.028 20.231,10.014 C20.645,10.001 20.991,10.335 21.004,10.759 C21.018,11.184 20.694,11.540 20.280,11.554 ZM14.624,28.460 C14.942,28.732 14.987,29.217 14.722,29.545 C14.573,29.728 14.360,29.823 14.144,29.823 C13.976,29.823 13.806,29.765 13.666,29.645 C13.348,29.374 13.304,28.888 13.568,28.561 C13.833,28.233 14.305,28.189 14.624,28.460 ZM18.631,30.460 C19.036,30.549 19.293,30.958 19.207,31.374 C19.132,31.735 18.820,31.983 18.475,31.983 C18.422,31.983 18.370,31.977 18.316,31.966 C17.912,31.876 17.654,31.467 17.741,31.051 C17.828,30.635 18.227,30.370 18.631,30.460 ZM23.081,30.314 C23.480,30.200 23.893,30.439 24.004,30.848 C24.117,31.258 23.884,31.683 23.486,31.798 C23.417,31.817 23.350,31.826 23.282,31.826 C22.955,31.826 22.654,31.604 22.561,31.264 C22.449,30.854 22.682,30.429 23.081,30.314 ZM28.019,28.098 C28.303,28.408 28.289,28.895 27.988,29.186 C27.843,29.327 27.658,29.396 27.474,29.396 C27.275,29.396 27.076,29.315 26.928,29.155 C26.644,28.845 26.658,28.357 26.959,28.065 C27.260,27.774 27.735,27.788 28.019,28.098 ZM28.226,14.362 C28.560,14.110 29.029,14.183 29.274,14.526 C29.519,14.869 29.448,15.351 29.114,15.603 C28.980,15.704 28.825,15.753 28.670,15.753 C28.441,15.753 28.213,15.644 28.067,15.439 C27.821,15.095 27.893,14.614 28.226,14.362 ZM30.326,23.744 C30.718,23.883 30.925,24.322 30.789,24.724 C30.683,25.042 30.392,25.242 30.081,25.242 C30.000,25.242 29.917,25.229 29.836,25.200 C29.445,25.061 29.238,24.622 29.372,24.221 C29.508,23.818 29.935,23.605 30.326,23.744 ZM30.513,20.319 C30.149,20.319 29.830,20.047 29.772,19.666 C29.710,19.246 29.990,18.852 30.399,18.788 C30.808,18.723 31.192,19.011 31.254,19.432 C31.317,19.853 31.037,20.245 30.627,20.310 C30.589,20.316 30.550,20.319 30.513,20.319 ZM11.579,25.785 C11.485,25.825 11.388,25.844 11.292,25.844 C10.998,25.844 10.719,25.665 10.599,25.369 C10.441,24.976 10.621,24.526 11.004,24.363 C11.386,24.199 11.825,24.385 11.984,24.779 C12.142,25.171 11.961,25.622 11.579,25.785 ZM10.560,20.958 C10.537,20.958 10.515,20.957 10.492,20.955 C10.080,20.917 9.775,20.543 9.812,20.119 C9.849,19.696 10.213,19.383 10.625,19.420 C11.038,19.459 11.343,19.833 11.306,20.256 C11.271,20.657 10.944,20.958 10.560,20.958 ZM14.300,8.715 C13.782,8.715 13.295,8.508 12.929,8.132 C12.563,7.756 12.362,7.256 12.362,6.724 C12.362,6.192 12.563,5.692 12.929,5.316 C13.295,4.940 13.782,4.733 14.300,4.733 C14.818,4.733 15.304,4.940 15.670,5.316 C16.036,5.692 16.238,6.192 16.238,6.724 C16.238,7.256 16.036,7.756 15.670,8.132 C15.304,8.508 14.818,8.715 14.300,8.715 ZM14.610,6.405 C14.527,6.320 14.417,6.273 14.300,6.273 C14.183,6.273 14.072,6.320 13.989,6.405 C13.906,6.490 13.861,6.603 13.861,6.724 C13.861,6.844 13.906,6.958 13.989,7.043 C14.072,7.128 14.183,7.175 14.300,7.175 C14.417,7.175 14.527,7.128 14.610,7.043 C14.693,6.958 14.739,6.844 14.739,6.724 C14.739,6.603 14.693,6.490 14.610,6.405 ZM6.572,16.654 C6.055,16.654 5.568,16.447 5.202,16.071 C4.836,15.695 4.634,15.195 4.634,14.663 C4.634,14.131 4.836,13.631 5.202,13.255 C5.568,12.879 6.055,12.672 6.572,12.672 C7.090,12.672 7.577,12.879 7.943,13.255 C8.309,13.631 8.511,14.131 8.511,14.663 C8.511,15.195 8.309,15.695 7.943,16.071 C7.577,16.447 7.090,16.654 6.572,16.654 ZM6.883,14.344 C6.800,14.259 6.690,14.212 6.573,14.212 C6.455,14.212 6.345,14.259 6.262,14.344 C6.179,14.429 6.133,14.542 6.133,14.663 C6.133,14.783 6.179,14.897 6.262,14.982 C6.345,15.067 6.455,15.114 6.573,15.114 C6.690,15.114 6.800,15.067 6.883,14.982 C6.966,14.897 7.012,14.783 7.012,14.663 C7.012,14.542 6.966,14.429 6.883,14.344 Z"/>
	</symbol>

	<symbol id="carlenz-i" width="40px" height="37px">
		<path fill-rule="evenodd"  fill="rgb(255, 255, 255)"
 			d="M38.220,18.740 L36.178,18.990 L38.131,20.971 C39.081,21.934 39.535,23.314 39.347,24.663 L38.678,29.442 C38.510,30.640 37.900,31.732 36.986,32.497 L36.986,34.659 C36.986,35.950 35.950,36.999 34.677,36.999 L30.850,36.999 C29.578,36.999 28.542,35.950 28.542,34.659 L28.542,33.605 L11.458,33.605 L11.458,34.659 C11.458,35.950 10.423,36.999 9.150,36.999 L5.322,36.999 C4.049,36.999 3.013,35.950 3.013,34.659 L3.013,32.497 C2.099,31.732 1.489,30.640 1.321,29.442 L0.653,24.663 C0.464,23.316 0.918,21.936 1.868,20.972 L3.822,18.990 L1.779,18.740 C0.765,18.616 -0.000,17.741 -0.000,16.705 C-0.000,15.574 0.907,14.654 2.022,14.654 L3.445,14.654 C4.314,14.654 5.057,15.214 5.342,15.996 L7.332,11.580 C8.071,9.938 9.547,8.718 11.280,8.316 C11.360,8.297 11.448,8.279 11.541,8.261 C11.542,8.235 11.543,8.209 11.544,8.183 C11.649,5.893 12.627,3.781 14.298,2.236 C15.970,0.692 18.133,-0.100 20.393,0.007 C22.651,0.113 24.734,1.105 26.257,2.800 C27.620,4.316 28.388,6.234 28.459,8.261 C28.552,8.279 28.639,8.297 28.719,8.316 C30.453,8.718 31.929,9.938 32.667,11.579 L34.657,15.997 C34.942,15.214 35.685,14.654 36.555,14.654 L37.978,14.654 C39.093,14.654 40.000,15.574 40.000,16.705 C40.000,17.741 39.235,18.616 38.220,18.740 ZM37.709,25.330 L30.614,25.330 L31.392,27.853 L37.355,27.853 L37.709,25.330 ZM30.072,34.659 C30.072,35.094 30.421,35.448 30.851,35.448 L34.677,35.448 C35.107,35.448 35.456,35.094 35.456,34.659 L35.456,33.358 C34.974,33.520 34.467,33.605 33.949,33.605 L30.072,33.605 L30.072,34.659 ZM4.543,34.659 C4.543,35.094 4.893,35.448 5.322,35.448 L9.150,35.448 C9.579,35.448 9.928,35.094 9.928,34.659 L9.928,33.605 L6.050,33.605 C5.533,33.605 5.025,33.520 4.543,33.358 L4.543,34.659 ZM4.212,31.475 C4.754,31.853 5.390,32.053 6.050,32.053 L33.949,32.053 C34.610,32.053 35.245,31.853 35.787,31.475 C36.484,30.988 36.968,30.241 37.133,29.405 L2.867,29.405 C3.032,30.241 3.515,30.988 4.212,31.475 ZM29.789,27.853 L29.011,25.330 L27.952,25.330 L28.730,27.853 L29.789,27.853 ZM27.127,27.853 L26.349,25.330 L13.650,25.330 L12.873,27.853 L27.127,27.853 ZM12.047,25.330 L10.988,25.330 L10.211,27.853 L11.270,27.853 L12.047,25.330 ZM2.644,27.853 L8.608,27.853 L9.385,25.330 L2.292,25.330 L2.644,27.853 ZM3.937,16.705 C3.937,16.429 3.716,16.206 3.445,16.206 L2.022,16.206 C1.751,16.206 1.530,16.429 1.530,16.705 C1.530,16.957 1.716,17.170 1.963,17.200 L3.937,17.442 L3.937,16.705 ZM11.622,9.827 C11.622,9.828 11.622,9.828 11.622,9.828 C10.965,9.980 10.360,10.294 9.852,10.726 C10.322,10.643 10.956,10.569 11.747,10.505 C11.696,10.282 11.655,10.056 11.622,9.827 ZM9.989,12.277 C9.448,12.383 8.937,12.559 8.464,12.802 L6.100,18.049 L25.575,18.049 L23.910,16.196 C22.715,16.830 21.384,17.166 20.009,17.166 C19.875,17.166 19.742,17.162 19.607,17.156 C17.348,17.050 15.266,16.058 13.743,14.363 C13.111,13.660 12.607,12.870 12.241,12.024 C11.246,12.096 10.473,12.182 9.989,12.277 ZM31.087,21.880 C31.324,22.143 31.728,22.162 31.988,21.922 C32.247,21.682 32.266,21.273 32.029,21.009 L26.157,14.474 C26.011,14.629 25.859,14.780 25.701,14.926 C25.543,15.073 25.379,15.210 25.213,15.343 L31.087,21.880 ZM25.126,3.845 C23.879,2.456 22.172,1.644 20.322,1.556 C20.212,1.551 20.102,1.549 19.992,1.549 C18.262,1.549 16.617,2.193 15.329,3.383 C13.960,4.648 13.158,6.379 13.072,8.255 C12.986,10.131 13.626,11.930 14.874,13.318 C16.121,14.707 17.828,15.519 19.678,15.606 C21.529,15.693 23.302,15.045 24.671,13.780 C27.498,11.168 27.702,6.711 25.126,3.845 ZM28.378,9.828 C28.377,9.827 28.377,9.827 28.376,9.827 C28.344,10.056 28.302,10.282 28.251,10.506 C29.041,10.569 29.675,10.643 30.148,10.725 C29.640,10.294 29.035,9.980 28.378,9.828 ZM31.537,12.802 C31.064,12.559 30.552,12.383 30.012,12.277 C29.525,12.182 28.752,12.095 27.759,12.024 C27.578,12.445 27.362,12.850 27.115,13.237 L31.440,18.049 L33.901,18.049 L31.537,12.802 ZM34.616,19.601 L32.834,19.601 L33.160,19.964 C33.965,20.860 33.901,22.252 33.018,23.068 C32.603,23.452 32.080,23.641 31.559,23.641 C30.970,23.641 30.383,23.400 29.956,22.924 L26.970,19.601 L5.384,19.601 L2.950,22.068 C2.496,22.529 2.218,23.139 2.155,23.778 L37.845,23.778 C37.782,23.139 37.504,22.529 37.049,22.068 L34.616,19.601 ZM37.978,16.206 L36.555,16.206 C36.284,16.206 36.063,16.429 36.063,16.705 L36.063,17.442 L38.037,17.200 C38.284,17.170 38.470,16.957 38.470,16.705 C38.470,16.429 38.249,16.206 37.978,16.206 ZM20.007,14.910 C19.908,14.910 19.810,14.907 19.710,14.903 C18.045,14.824 16.510,14.093 15.387,12.843 C13.070,10.264 13.253,6.254 15.797,3.904 C17.029,2.765 18.623,2.180 20.289,2.260 C21.955,2.338 23.490,3.070 24.613,4.319 C26.930,6.898 26.747,10.909 24.203,13.259 C23.044,14.329 21.564,14.910 20.007,14.910 ZM23.482,5.364 C22.635,4.421 21.476,3.869 20.219,3.810 C20.144,3.806 20.069,3.804 19.995,3.804 C18.819,3.804 17.702,4.242 16.827,5.050 C14.907,6.825 14.769,9.852 16.518,11.799 C17.365,12.742 18.524,13.294 19.781,13.353 C21.038,13.413 22.243,12.972 23.173,12.112 C25.093,10.338 25.231,7.311 23.482,5.364 ZM22.204,11.809 C21.996,11.809 21.789,11.724 21.638,11.556 C21.353,11.239 21.376,10.749 21.688,10.460 C22.183,10.003 22.473,9.377 22.504,8.699 C22.535,8.021 22.304,7.371 21.853,6.870 C21.568,6.553 21.590,6.062 21.903,5.774 C22.215,5.485 22.699,5.508 22.983,5.825 C23.709,6.633 24.082,7.679 24.032,8.771 C23.982,9.863 23.515,10.870 22.719,11.606 C22.572,11.742 22.387,11.809 22.204,11.809 Z"/>
	</symbol>

	<symbol id="shield-i" width="31px" height="38px">
		<path fill-rule="evenodd"  fill="rgb(255, 255, 255)"
 			d="M26.889,29.377 C24.264,33.181 20.610,36.106 16.323,37.839 C16.058,37.946 15.779,38.000 15.500,38.000 C15.221,38.000 14.942,37.946 14.676,37.839 C10.390,36.106 6.736,33.181 4.111,29.377 C1.421,25.482 -0.000,20.917 -0.000,16.176 L-0.000,5.933 C-0.000,4.981 0.642,4.128 1.562,3.859 L14.021,0.211 C14.988,-0.073 16.011,-0.073 16.979,0.211 L29.438,3.859 C30.358,4.128 31.000,4.981 31.000,5.933 L31.000,16.176 C31.000,20.917 29.578,25.482 26.889,29.377 ZM29.257,5.933 C29.257,5.742 29.129,5.572 28.945,5.518 L16.486,1.870 C16.163,1.776 15.832,1.729 15.500,1.729 C15.168,1.729 14.837,1.776 14.514,1.870 L2.055,5.518 C1.871,5.572 1.743,5.742 1.743,5.933 L1.743,16.176 C1.743,20.566 3.059,24.793 5.548,28.399 C7.980,31.922 11.364,34.632 15.333,36.236 C15.441,36.279 15.559,36.279 15.667,36.236 C19.636,34.632 23.020,31.922 25.452,28.399 C27.941,24.793 29.257,20.566 29.257,16.176 L29.257,5.933 ZM16.105,32.575 C15.916,32.673 15.708,32.723 15.500,32.723 C15.292,32.723 15.084,32.673 14.895,32.575 C12.280,31.215 9.993,29.218 8.282,26.799 C6.074,23.679 4.908,20.006 4.908,16.176 L4.908,8.929 C4.908,8.358 5.293,7.846 5.845,7.684 L15.130,4.965 C15.372,4.894 15.628,4.895 15.869,4.965 L25.155,7.684 C25.707,7.846 26.092,8.358 26.092,8.929 L26.092,16.176 C26.092,20.006 24.926,23.679 22.718,26.799 C21.007,29.218 18.720,31.215 16.105,32.575 ZM24.350,9.252 L15.500,6.661 L6.650,9.252 L6.650,16.176 C6.650,19.648 7.707,22.977 9.708,25.805 C11.216,27.936 13.215,29.706 15.500,30.935 C17.785,29.706 19.784,27.936 21.292,25.805 C23.293,22.977 24.350,19.648 24.350,16.176 L24.350,9.252 Z"/>
	</symbol>

	<symbol id="baggage-i" width="36px" height="36px">
		<path fill-rule="evenodd"  fill="rgb(255, 255, 255)"
 			d="M35.283,31.709 L34.091,31.709 C34.338,32.132 34.481,32.625 34.481,33.151 C34.481,34.722 33.212,36.000 31.652,36.000 C30.092,36.000 28.823,34.722 28.823,33.151 C28.823,32.625 28.966,32.132 29.214,31.709 L6.481,31.709 C6.572,32.012 6.621,32.333 6.621,32.666 C6.621,34.504 5.136,36.000 3.310,36.000 C1.485,36.000 -0.000,34.504 -0.000,32.666 C-0.000,30.828 1.485,29.332 3.310,29.332 C3.614,29.332 3.907,29.374 4.186,29.452 L4.186,9.424 C4.186,8.505 3.444,7.758 2.532,7.758 L1.050,7.758 C0.654,7.758 0.333,7.435 0.333,7.036 C0.333,6.637 0.654,6.314 1.050,6.314 L2.532,6.314 C4.235,6.314 5.621,7.709 5.621,9.424 L5.621,30.265 L6.298,30.265 L6.298,0.722 C6.298,0.323 6.619,-0.000 7.015,-0.000 L22.069,-0.000 C22.465,-0.000 22.786,0.323 22.786,0.722 L22.786,9.312 L33.727,9.312 C34.123,9.312 34.444,9.636 34.444,10.034 L34.444,30.265 L35.283,30.265 C35.679,30.265 36.000,30.588 36.000,30.987 C36.000,31.386 35.679,31.709 35.283,31.709 ZM3.310,30.777 C2.276,30.777 1.434,31.624 1.434,32.666 C1.434,33.708 2.276,34.555 3.310,34.555 C4.345,34.555 5.187,33.708 5.187,32.666 C5.187,31.624 4.345,30.777 3.310,30.777 ZM21.352,10.034 L21.352,1.444 L7.732,1.444 L7.732,15.132 L21.352,15.132 L21.352,10.034 ZM21.352,16.576 L7.732,16.576 L7.732,30.265 L21.352,30.265 L21.352,16.576 ZM33.010,10.757 L22.786,10.757 L22.786,30.265 L33.010,30.265 L33.010,10.757 ZM31.652,31.747 C30.883,31.747 30.257,32.376 30.257,33.151 C30.257,33.925 30.883,34.555 31.652,34.555 C32.421,34.555 33.047,33.925 33.046,33.151 C33.046,32.376 32.421,31.747 31.652,31.747 ZM24.714,11.863 L31.133,11.863 C31.529,11.863 31.850,12.186 31.850,12.585 L31.850,28.417 C31.850,28.816 31.529,29.139 31.133,29.139 L24.714,29.139 C24.318,29.139 23.997,28.816 23.997,28.417 L23.997,12.585 C23.997,12.186 24.318,11.863 24.714,11.863 ZM30.416,13.307 L29.493,13.307 L30.416,14.237 L30.416,13.307 ZM30.416,27.695 L30.416,27.695 L30.416,25.242 L25.432,20.223 L25.432,22.797 L30.296,27.695 L30.416,27.695 ZM25.431,27.695 L28.267,27.695 L25.431,24.839 L25.431,27.695 ZM25.431,18.183 C25.439,18.190 25.446,18.195 25.453,18.202 L30.416,23.200 L30.416,20.681 L25.431,15.662 L25.431,18.183 ZM25.431,13.622 C25.439,13.628 25.446,13.634 25.453,13.641 L30.416,18.639 L30.416,16.279 L27.465,13.307 L25.431,13.307 L25.431,13.622 ZM9.636,17.757 L19.436,17.757 C19.832,17.757 20.153,18.081 20.153,18.480 L20.153,28.348 C20.153,28.747 19.832,29.070 19.436,29.070 L9.636,29.070 C9.240,29.070 8.919,28.747 8.919,28.348 L8.919,18.480 C8.919,18.081 9.240,17.757 9.636,17.757 ZM18.719,19.202 L15.971,19.202 L18.719,21.969 L18.719,19.202 ZM10.353,27.626 L13.120,27.626 L10.353,24.839 L10.353,27.626 ZM10.353,22.797 L15.149,27.626 L18.719,27.626 L18.719,24.011 L13.943,19.202 L11.367,19.202 L15.854,23.719 C16.134,24.001 16.134,24.459 15.854,24.741 C15.714,24.882 15.530,24.952 15.346,24.952 C15.163,24.952 14.980,24.882 14.840,24.741 L10.353,20.223 L10.353,22.797 ZM17.503,25.380 L17.703,25.582 C17.983,25.864 17.983,26.321 17.703,26.603 C17.563,26.744 17.379,26.815 17.196,26.815 C17.013,26.815 16.829,26.744 16.689,26.603 L16.489,26.402 C16.209,26.120 16.209,25.662 16.489,25.380 C16.769,25.098 17.223,25.098 17.503,25.380 ZM9.636,2.639 L19.436,2.639 C19.832,2.639 20.153,2.962 20.153,3.361 L20.153,13.229 C20.153,13.628 19.832,13.951 19.436,13.951 L9.636,13.951 C9.240,13.951 8.919,13.628 8.919,13.229 L8.919,3.361 C8.919,2.962 9.240,2.639 9.636,2.639 ZM18.719,4.083 L15.971,4.083 L18.719,6.850 L18.719,4.083 ZM18.719,8.893 L13.942,4.083 L11.367,4.083 L18.719,11.486 L18.719,8.893 ZM10.353,12.507 L13.120,12.507 L10.353,9.720 L10.353,12.507 ZM10.353,7.678 L15.148,12.507 L17.705,12.507 L10.353,5.104 L10.353,7.678 Z"/>
	</symbol>

	<symbol id="screen-i" width="45px" height="38px">
		<path fill-rule="evenodd"  fill="rgb(255, 255, 255)"
 			d="M41.232,28.499 L28.488,28.499 L29.768,32.390 C30.978,32.708 31.875,33.825 31.875,35.149 L31.875,36.099 L34.688,36.099 C35.205,36.099 35.625,36.525 35.625,37.049 C35.625,37.574 35.205,38.000 34.688,38.000 L30.409,38.000 L14.592,38.000 L14.591,38.000 L10.312,38.000 C9.795,38.000 9.375,37.574 9.375,37.049 C9.375,36.525 9.795,36.099 10.312,36.099 L13.125,36.099 L13.125,35.149 C13.125,33.824 14.021,32.708 15.232,32.390 L16.512,28.499 L3.768,28.499 C1.690,28.499 -0.000,26.787 -0.000,24.681 L-0.000,3.817 C-0.000,1.712 1.690,-0.000 3.768,-0.000 L41.232,-0.000 C43.310,-0.000 45.000,1.712 45.000,3.817 L45.000,24.681 C45.000,26.787 43.310,28.499 41.232,28.499 ZM15.937,34.199 C15.421,34.199 15.000,34.625 15.000,35.149 L15.000,36.099 L30.000,36.099 L30.000,35.149 C30.000,34.625 29.579,34.199 29.062,34.199 L15.937,34.199 ZM27.762,32.299 L26.512,28.499 L18.488,28.499 L17.238,32.299 L27.762,32.299 ZM43.125,5.699 L7.662,5.699 C7.144,5.699 6.724,5.274 6.724,4.749 C6.724,4.225 7.144,3.799 7.662,3.799 L43.124,3.799 C43.114,2.750 42.270,1.899 41.232,1.899 L3.768,1.899 C2.724,1.899 1.875,2.760 1.875,3.817 L1.875,21.849 L37.488,21.849 C38.006,21.849 38.426,22.275 38.426,22.799 C38.426,23.324 38.006,23.750 37.488,23.750 L1.875,23.750 L1.875,24.681 C1.875,25.739 2.724,26.599 3.768,26.599 L17.813,26.599 L27.188,26.599 L41.232,26.599 C42.276,26.599 43.125,25.739 43.125,24.681 L43.125,5.699 ZM40.592,23.750 L40.195,23.750 C39.678,23.750 39.258,23.324 39.258,22.799 C39.258,22.275 39.678,21.849 40.195,21.849 L40.592,21.849 C41.110,21.849 41.529,22.275 41.529,22.799 C41.529,23.324 41.110,23.750 40.592,23.750 ZM27.971,9.804 L26.723,9.798 L26.543,11.236 L25.943,16.034 C25.881,16.533 25.444,16.893 24.955,16.859 L24.955,16.861 L17.806,16.379 C17.367,16.349 17.019,16.017 16.946,15.595 L16.945,15.595 L16.103,10.809 C16.014,10.293 16.355,9.800 16.865,9.710 C16.919,9.701 16.973,9.696 17.026,9.696 L17.026,9.695 L21.867,9.695 C22.385,9.695 22.805,10.121 22.805,10.645 C22.805,11.170 22.385,11.595 21.867,11.595 L18.145,11.595 L18.662,14.536 L24.201,14.910 L24.691,10.999 L24.975,8.729 C25.032,8.261 25.427,7.900 25.904,7.902 L27.978,7.912 C28.493,7.914 28.910,8.339 28.908,8.862 C28.906,9.384 28.486,9.806 27.971,9.804 ZM19.282,17.747 C19.798,17.747 20.219,18.174 20.219,18.697 C20.219,19.221 19.798,19.647 19.282,19.647 C18.765,19.647 18.344,19.221 18.344,18.697 C18.344,18.174 18.765,17.747 19.282,17.747 ZM24.061,17.747 C24.577,17.747 24.998,18.174 24.998,18.697 C24.998,19.221 24.577,19.647 24.061,19.647 C23.545,19.647 23.123,19.221 23.123,18.697 C23.123,18.174 23.545,17.747 24.061,17.747 ZM4.787,5.699 L4.366,5.699 C3.848,5.699 3.428,5.274 3.428,4.749 C3.428,4.225 3.848,3.799 4.366,3.799 L4.787,3.799 C5.305,3.799 5.724,4.225 5.724,4.749 C5.724,5.274 5.305,5.699 4.787,5.699 Z"/>
	</symbol>

	<symbol id="lock-i" width="20px" height="20px" viewBox="0 0 1792 1792">
		<path d="M640 768h512v-192q0-106-75-181t-181-75-181 75-75 181v192zm832 96v576q0 40-28 68t-68 28h-960q-40 0-68-28t-28-68v-576q0-40 28-68t68-28h32v-192q0-184 132-316t316-132 316 132 132 316v192h32q40 0 68 28t28 68z"/>
	</symbol>

	<symbol id="userplus-i" width="20px" height="20px" viewBox="0 0 2048 1792">
		<path d="M704 896q-159 0-271.5-112.5t-112.5-271.5 112.5-271.5 271.5-112.5 271.5 112.5 112.5 271.5-112.5 271.5-271.5 112.5zm960 128h352q13 0 22.5 9.5t9.5 22.5v192q0 13-9.5 22.5t-22.5 9.5h-352v352q0 13-9.5 22.5t-22.5 9.5h-192q-13 0-22.5-9.5t-9.5-22.5v-352h-352q-13 0-22.5-9.5t-9.5-22.5v-192q0-13 9.5-22.5t22.5-9.5h352v-352q0-13 9.5-22.5t22.5-9.5h192q13 0 22.5 9.5t9.5 22.5v352zm-736 224q0 52 38 90t90 38h256v238q-68 50-171 50h-874q-121 0-194-69t-73-190q0-53 3.5-103.5t14-109 26.5-108.5 43-97.5 62-81 85.5-53.5 111.5-20q19 0 39 17 79 61 154.5 91.5t164.5 30.5 164.5-30.5 154.5-91.5q20-17 39-17 132 0 217 96h-223q-52 0-90 38t-38 90v192z"/>
	</symbol>

	<symbol id="envelope-i" width="20px" height="20px" viewBox="0 0 1792 1792">
		<path d="M1792 710v794q0 66-47 113t-113 47h-1472q-66 0-113-47t-47-113v-794q44 49 101 87 362 246 497 345 57 42 92.5 65.5t94.5 48 110 24.5h2q51 0 110-24.5t94.5-48 92.5-65.5q170-123 498-345 57-39 100-87zm0-294q0 79-49 151t-122 123q-376 261-468 325-10 7-42.5 30.5t-54 38-52 32.5-57.5 27-50 9h-2q-23 0-50-9t-57.5-27-52-32.5-54-38-42.5-30.5q-91-64-262-182.5t-205-142.5q-62-42-117-115.5t-55-136.5q0-78 41.5-130t118.5-52h1472q65 0 112.5 47t47.5 113z"/>
	</symbol>

	<symbol id="phone-i" width="20px" height="20px" viewBox="0 0 1792 1792">
		<path d="M1600 1240q0 27-10 70.5t-21 68.5q-21 50-122 106-94 51-186 51-27 0-53-3.5t-57.5-12.5-47-14.5-55.5-20.5-49-18q-98-35-175-83-127-79-264-216t-216-264q-48-77-83-175-3-9-18-49t-20.5-55.5-14.5-47-12.5-57.5-3.5-53q0-92 51-186 56-101 106-122 25-11 68.5-21t70.5-10q14 0 21 3 18 6 53 76 11 19 30 54t35 63.5 31 53.5q3 4 17.5 25t21.5 35.5 7 28.5q0 20-28.5 50t-62 55-62 53-28.5 46q0 9 5 22.5t8.5 20.5 14 24 11.5 19q76 137 174 235t235 174q2 1 19 11.5t24 14 20.5 8.5 22.5 5q18 0 46-28.5t53-62 55-62 50-28.5q14 0 28.5 7t35.5 21.5 25 17.5q25 15 53.5 31t63.5 35 54 30q70 35 76 53 3 7 3 21z"/>
	</symbol>

	<symbol id="marker-i" width="20px" height="20px" viewBox="0 0 1792 1792">
		<path d="M1152 640q0-106-75-181t-181-75-181 75-75 181 75 181 181 75 181-75 75-181zm256 0q0 109-33 179l-364 774q-16 33-47.5 52t-67.5 19-67.5-19-46.5-52l-365-774q-33-70-33-179 0-212 150-362t362-150 362 150 150 362z"/>
	</symbol>

	<symbol id="angle-d-right-i" width="18px" height="20px" viewBox="0 0 1792 1792">
		<path d="M979 960q0 13-10 23l-466 466q-10 10-23 10t-23-10l-50-50q-10-10-10-23t10-23l393-393-393-393q-10-10-10-23t10-23l50-50q10-10 23-10t23 10l466 466q10 10 10 23zm384 0q0 13-10 23l-466 466q-10 10-23 10t-23-10l-50-50q-10-10-10-23t10-23l393-393-393-393q-10-10-10-23t10-23l50-50q10-10 23-10t23 10l466 466q10 10 10 23z"/>
	</symbol>

	<symbol id="chevron-i" width="21px" height="34px" viewBox="0 0 21 34">
		<path d="M17.027,-0.001 L21.000,3.966 L7.946,17.000 L21.000,30.033 L17.027,33.999 L0.000,17.000 L17.027,-0.001 Z"/>
	</symbol>

	<symbol id="angle-down-i" width="16px" height="8px" viewBox="0 0 16 8">
		<path fill="rgb(85, 85, 85)"
 		d="M7.999,6.962 L0.773,0.125 C0.596,-0.043 0.311,-0.043 0.133,0.125 C-0.045,0.293 -0.045,0.563 0.133,0.731 L7.681,7.873 C7.858,8.041 8.143,8.041 8.321,7.873 L15.865,0.731 C15.952,0.648 15.999,0.537 15.999,0.429 C15.999,0.322 15.956,0.210 15.865,0.128 C15.688,-0.040 15.403,-0.040 15.225,0.128 L7.999,6.962 Z"/>
	</symbol>

	<symbol id="caret-left-i" width="5px" height="9px" viewBox="0 0 5 9">
		<path d="M4.998,4.505 L0.001,9.010 L0.001,-0.000 L4.998,4.505 Z"/>
	</symbol>

	<symbol id="vk-i" width="36px" height="30px" viewBox="0 0 2048 1792">
		<path d="M1981 520q23 64-150 294-24 32-65 85-40 51-55 72t-30.5 49.5-12 42 13 34.5 32.5 43 57 53q4 2 5 4 141 131 191 221 3 5 6.5 12.5t7 26.5-.5 34-25 27.5-59 12.5l-256 4q-24 5-56-5t-52-22l-20-12q-30-21-70-64t-68.5-77.5-61-58-56.5-15.5q-3 1-8 3.5t-17 14.5-21.5 29.5-17 52-6.5 77.5q0 15-3.5 27.5t-7.5 18.5l-4 5q-18 19-53 22h-115q-71 4-146-16.5t-131.5-53-103-66-70.5-57.5l-25-24q-10-10-27.5-30t-71.5-91-106-151-122.5-211-130.5-272q-6-16-6-27t3-16l4-6q15-19 57-19l274-2q12 2 23 6.5t16 8.5l5 3q16 11 24 32 20 50 46 103.5t41 81.5l16 29q29 60 56 104t48.5 68.5 41.5 38.5 34 14 27-5q2-1 5-5t12-22 13.5-47 9.5-81 0-125q-2-40-9-73t-14-46l-6-12q-25-34-85-43-13-2 5-24 16-19 38-30 53-26 239-24 82 1 135 13 20 5 33.5 13.5t20.5 24 10.5 32 3.5 45.5-1 55-2.5 70.5-1.5 82.5q0 11-1 42t-.5 48 3.5 40.5 11.5 39 22.5 24.5q8 2 17 4t26-11 38-34.5 52-67 68-107.5q60-104 107-225 4-10 10-17.5t11-10.5l4-3 5-2.5 13-3 20-.5 288-2q39-5 64 2.5t31 16.5z"/>
	</symbol>

	<symbol id="fb-i" width="36px" height="30px" viewBox="0 0 1792 1792">
		<path d="M1579 128q35 0 60 25t25 60v1366q0 35-25 60t-60 25h-391v-595h199l30-232h-229v-148q0-56 23.5-84t91.5-28l122-1v-207q-63-9-178-9-136 0-217.5 80t-81.5 226v171h-200v232h200v595h-735q-35 0-60-25t-25-60v-1366q0-35 25-60t60-25h1366z"/>
	</symbol>

	<symbol id="tw-i" width="36px" height="30px" viewBox="0 0 1792 1792">
		<path d="M1408 610q-56 25-121 34 68-40 93-117-65 38-134 51-61-66-153-66-87 0-148.5 61.5t-61.5 148.5q0 29 5 48-129-7-242-65t-192-155q-29 50-29 106 0 114 91 175-47-1-100-26v2q0 75 50 133.5t123 72.5q-29 8-51 8-13 0-39-4 21 63 74.5 104t121.5 42q-116 90-261 90-26 0-50-3 148 94 322 94 112 0 210-35.5t168-95 120.5-137 75-162 24.5-168.5q0-18-1-27 63-45 105-109zm256-194v960q0 119-84.5 203.5t-203.5 84.5h-960q-119 0-203.5-84.5t-84.5-203.5v-960q0-119 84.5-203.5t203.5-84.5h960q119 0 203.5 84.5t84.5 203.5z"/>
	</symbol>

	<symbol id="search-i" width="21px" height="22px">
		<path fill="rgb(255, 255, 255)"
 		d="M20.672,20.038 L15.497,14.592 C16.827,12.992 17.556,10.978 17.556,8.882 C17.556,3.984 13.618,-0.001 8.777,-0.001 C3.936,-0.001 -0.002,3.984 -0.002,8.882 C-0.002,13.779 3.936,17.764 8.777,17.764 C10.594,17.764 12.326,17.209 13.807,16.157 L19.022,21.644 C19.239,21.873 19.533,21.999 19.847,21.999 C20.144,21.999 20.426,21.884 20.640,21.676 C21.095,21.233 21.110,20.498 20.672,20.038 ZM8.777,2.317 C12.355,2.317 15.266,5.262 15.266,8.882 C15.266,12.502 12.355,15.447 8.777,15.447 C5.199,15.447 2.288,12.502 2.288,8.882 C2.288,5.262 5.199,2.317 8.777,2.317 Z"/>
	</symbol>

	<symbol id="rub-i" width="1792" height="1792" viewBox="0 0 1792 1792">
		<path d="M1299 565q0-100-65-162t-171-62h-320v448h320q106 0 171-62t65-162zm237 0q0 193-126.5 315t-326.5 122h-340v118h505q14 0 23 9t9 23v128q0 14-9 23t-23 9h-505v192q0 14-9.5 23t-22.5 9h-167q-14 0-23-9t-9-23v-192h-224q-14 0-23-9t-9-23v-128q0-14 9-23t23-9h224v-118h-224q-14 0-23-9t-9-23v-149q0-13 9-22.5t23-9.5h224v-629q0-14 9-23t23-9h539q200 0 326.5 122t126.5 315z"/>
	</symbol>
</svg>